<svg width="23" height="16" viewBox="0 0 23 16" fill="none" xmlns="http://www.w3.org/2000/svg">
<path d="M2.8309 7.45201L11.1365 1.452C11.2457 1.37334 11.3722 1.33334 11.5 1.33334C11.6016 1.33334 11.7032 1.35867 11.7964 1.40934C12.0073 1.52467 12.1389 1.752 12.1389 2L12.1389 14C12.1389 14.248 12.0073 14.4753 11.7964 14.5907C11.5862 14.7067 11.332 14.6893 11.1365 14.5487L2.8309 8.54867C2.6584 8.42334 2.55554 8.21867 2.55554 8C2.55554 7.78134 2.6584 7.57667 2.8309 7.45201Z" fill="#474747"/>
<path d="M10.4975 7.71812L18.8031 1.71812C18.9123 1.63945 19.0388 1.59945 19.1666 1.59945C19.2682 1.59945 19.3698 1.62478 19.4631 1.67545C19.6739 1.79078 19.8055 2.01812 19.8055 2.26612L19.8055 14.2661C19.8055 14.5141 19.6739 14.7415 19.4631 14.8568C19.2529 14.9728 18.9986 14.9555 18.8031 14.8148L10.4975 8.81478C10.325 8.68945 10.2222 8.48479 10.2222 8.26612C10.2222 8.04745 10.325 7.84279 10.4975 7.71812Z" fill="#474747"/>
</svg>
