<svg width="48" height="48" viewBox="0 0 48 48" fill="none" xmlns="http://www.w3.org/2000/svg">
<g filter="url(#filter0_i_89_1360)">
<circle cx="24" cy="24" r="23.5" stroke="url(#paint0_linear_89_1360)"/>
</g>
<path d="M31.6552 23.3421L21.2552 16.1424C21.1184 16.048 20.96 16 20.8 16C20.6728 16 20.5456 16.0304 20.4288 16.0912C20.1648 16.2296 20 16.5024 20 16.8L20 31.1994C20 31.497 20.1648 31.7698 20.4288 31.9082C20.692 32.0474 21.0104 32.0266 21.2552 31.8578L31.6552 24.6581C31.8712 24.5077 32 24.2621 32 23.9997C32 23.7373 31.8712 23.4917 31.6552 23.3421Z" fill="url(#paint1_linear_89_1360)"/>
<defs>
<filter id="filter0_i_89_1360" x="0" y="0" width="52" height="60" filterUnits="userSpaceOnUse" color-interpolation-filters="sRGB">
<feFlood flood-opacity="0" result="BackgroundImageFix"/>
<feBlend mode="normal" in="SourceGraphic" in2="BackgroundImageFix" result="shape"/>
<feColorMatrix in="SourceAlpha" type="matrix" values="0 0 0 0 0 0 0 0 0 0 0 0 0 0 0 0 0 0 127 0" result="hardAlpha"/>
<feOffset dx="4" dy="12"/>
<feGaussianBlur stdDeviation="20"/>
<feComposite in2="hardAlpha" operator="arithmetic" k2="-1" k3="1"/>
<feColorMatrix type="matrix" values="0 0 0 0 0.696179 0 0 0 0 0.653698 0 0 0 0 0.9625 0 0 0 0.5 0"/>
<feBlend mode="normal" in2="shape" result="effect1_innerShadow_89_1360"/>
</filter>
<linearGradient id="paint0_linear_89_1360" x1="24" y1="0" x2="24" y2="48" gradientUnits="userSpaceOnUse">
<stop stop-color="#4A00E0"/>
<stop offset="1" stop-color="#8E2DE2"/>
</linearGradient>
<linearGradient id="paint1_linear_89_1360" x1="26" y1="32" x2="26" y2="16" gradientUnits="userSpaceOnUse">
<stop stop-color="#4A00E0"/>
<stop offset="1" stop-color="#8E2DE2"/>
</linearGradient>
</defs>
</svg>
