<svg width="24" height="25" viewBox="0 0 24 25" fill="none" xmlns="http://www.w3.org/2000/svg">
<path d="M11.9995 2.5C9.89821 2.49843 7.84993 3.15934 6.14585 4.38875C4.44178 5.61817 3.16866 7.35351 2.5075 9.34805C1.84635 11.3426 1.83081 13.4948 2.4631 15.4987C3.09539 17.5026 4.34333 19.2561 6.02948 20.51C7.75366 21.8018 9.85006 22.5 12.0045 22.5C14.1589 22.5 16.2553 21.8018 17.9795 20.51C19.6613 19.253 20.9048 17.4985 21.5337 15.4952C22.1626 13.4919 22.145 11.3415 21.4834 9.34879C20.8217 7.35608 19.5496 5.6222 17.8474 4.39293C16.1451 3.16367 14.0992 2.5014 11.9995 2.5ZM11.9995 6.5C12.5928 6.5 13.1728 6.67595 13.6662 7.00559C14.1595 7.33524 14.5441 7.80377 14.7711 8.35195C14.9982 8.90013 15.0576 9.50333 14.9418 10.0853C14.8261 10.6672 14.5404 11.2018 14.1208 11.6213C13.7012 12.0409 13.1667 12.3266 12.5847 12.4424C12.0028 12.5581 11.3996 12.4987 10.8514 12.2716C10.3032 12.0446 9.83471 11.6601 9.50507 11.1667C9.17542 10.6734 8.99948 10.0933 8.99948 9.5C9.00185 8.70508 9.31868 7.9434 9.88078 7.38131C10.4429 6.81921 11.2046 6.50238 11.9995 6.5ZM11.9995 20.5C9.93257 20.4981 7.94685 19.6952 6.45948 18.26C6.90184 17.1521 7.66572 16.202 8.65275 15.532C9.63978 14.862 10.8048 14.5028 11.9977 14.5007C13.1907 14.4985 14.3569 14.8535 15.3464 15.5199C16.3358 16.1864 17.1031 17.1337 17.5495 18.24C16.0655 19.6891 14.0736 20.5002 11.9995 20.5Z" fill="url(#paint0_linear_198_1340)"/>
<defs>
<linearGradient id="paint0_linear_198_1340" x1="11.9964" y1="2.5" x2="11.9964" y2="22.5" gradientUnits="userSpaceOnUse">
<stop stop-color="#4E03E0"/>
<stop offset="1" stop-color="#8729E2"/>
</linearGradient>
</defs>
</svg>
