<svg width="23" height="16" viewBox="0 0 23 16" fill="none" xmlns="http://www.w3.org/2000/svg">
<path d="M20.1691 7.45201L11.8635 1.452C11.7543 1.37334 11.6278 1.33334 11.5 1.33334C11.3984 1.33334 11.2968 1.35867 11.2036 1.40934C10.9927 1.52467 10.8611 1.752 10.8611 2L10.8611 14C10.8611 14.248 10.9927 14.4753 11.2036 14.5907C11.4138 14.7067 11.668 14.6893 11.8635 14.5487L20.1691 8.54867C20.3416 8.42334 20.4445 8.21867 20.4445 8C20.4445 7.78134 20.3416 7.57667 20.1691 7.45201Z" fill="#474747"/>
<path d="M12.5025 7.71812L4.19691 1.71812C4.08766 1.63945 3.96116 1.59945 3.83338 1.59945C3.7318 1.59945 3.63021 1.62478 3.53693 1.67545C3.3261 1.79078 3.19449 2.01812 3.19449 2.26612L3.19449 14.2661C3.19449 14.5141 3.3261 14.7415 3.53693 14.8568C3.74713 14.9728 4.00141 14.9555 4.19691 14.8148L12.5025 8.81478C12.675 8.68945 12.7778 8.48479 12.7778 8.26612C12.7778 8.04745 12.675 7.84279 12.5025 7.71812Z" fill="#474747"/>
</svg>
