<svg width="21" height="21" viewBox="0 0 21 21" fill="none" xmlns="http://www.w3.org/2000/svg">
<path d="M11.3484 1.25161C11.1234 1.02665 10.8182 0.900269 10.5 0.900269C10.1819 0.900269 9.87668 1.02665 9.65165 1.25161L1.25165 9.65161C1.03306 9.87793 0.912106 10.1811 0.91484 10.4957C0.917574 10.8103 1.04378 11.1113 1.26627 11.3338C1.48876 11.5563 1.78973 11.6825 2.10437 11.6852C2.419 11.688 2.72213 11.567 2.94845 11.3484L3.30005 10.9968V18.9C3.30005 19.2183 3.42648 19.5235 3.65152 19.7485C3.87656 19.9736 4.18179 20.1 4.50005 20.1H6.90005C7.21831 20.1 7.52353 19.9736 7.74858 19.7485C7.97362 19.5235 8.10005 19.2183 8.10005 18.9V16.5C8.10005 16.1818 8.22648 15.8765 8.45152 15.6515C8.67656 15.4264 8.98179 15.3 9.30005 15.3H11.7C12.0183 15.3 12.3235 15.4264 12.5486 15.6515C12.7736 15.8765 12.9 16.1818 12.9 16.5V18.9C12.9 19.2183 13.0265 19.5235 13.2515 19.7485C13.4766 19.9736 13.7818 20.1 14.1 20.1H16.5C16.8183 20.1 17.1235 19.9736 17.3486 19.7485C17.5736 19.5235 17.7 19.2183 17.7 18.9V10.9968L18.0516 11.3484C18.278 11.567 18.5811 11.688 18.8957 11.6852C19.2104 11.6825 19.5113 11.5563 19.7338 11.3338C19.9563 11.1113 20.0825 10.8103 20.0853 10.4957C20.088 10.1811 19.967 9.87793 19.7484 9.65161L11.3484 1.25161Z" fill="#828282"/>
</svg>
