<svg width="55" height="55" viewBox="0 0 55 55" fill="none" xmlns="http://www.w3.org/2000/svg">
<path d="M27.5 44C21.7708 44 16.7063 41.0667 13.75 36.6667C13.8188 32.0833 22.9167 29.5625 27.5 29.5625C32.0833 29.5625 41.1813 32.0833 41.25 36.6667C38.2938 41.0667 33.2292 44 27.5 44ZM27.5 11.4583C29.3234 11.4583 31.0721 12.1827 32.3614 13.472C33.6507 14.7613 34.375 16.51 34.375 18.3333C34.375 20.1567 33.6507 21.9054 32.3614 23.1947C31.0721 24.484 29.3234 25.2083 27.5 25.2083C25.6766 25.2083 23.928 24.484 22.6386 23.1947C21.3493 21.9054 20.625 20.1567 20.625 18.3333C20.625 16.51 21.3493 14.7613 22.6386 13.472C23.928 12.1827 25.6766 11.4583 27.5 11.4583ZM27.5 4.58333C24.4905 4.58333 21.5106 5.17609 18.7302 6.32776C15.9498 7.47943 13.4235 9.16746 11.2955 11.2955C6.99777 15.5932 4.58334 21.4221 4.58334 27.5C4.58334 33.5779 6.99777 39.4068 11.2955 43.7045C13.4235 45.8325 15.9498 47.5206 18.7302 48.6722C21.5106 49.8239 24.4905 50.4167 27.5 50.4167C33.5779 50.4167 39.4068 48.0022 43.7045 43.7045C48.0022 39.4068 50.4167 33.5779 50.4167 27.5C50.4167 14.8271 40.1042 4.58333 27.5 4.58333Z" fill="#DFDFDF"/>
</svg>
