<svg width="25" height="25" viewBox="0 0 25 25" fill="none" xmlns="http://www.w3.org/2000/svg">
<path d="M13.3484 3.25161C13.1234 3.02665 12.8182 2.90027 12.5 2.90027C12.1818 2.90027 11.8766 3.02665 11.6516 3.25161L3.25159 11.6516C3.033 11.8779 2.91205 12.1811 2.91478 12.4957C2.91751 12.8103 3.04372 13.1113 3.26621 13.3338C3.4887 13.5563 3.78967 13.6825 4.10431 13.6852C4.41894 13.688 4.72207 13.567 4.94839 13.3484L5.29999 12.9968V20.9C5.29999 21.2183 5.42642 21.5235 5.65146 21.7485C5.8765 21.9736 6.18173 22.1 6.49999 22.1H8.89999C9.21825 22.1 9.52347 21.9736 9.74852 21.7485C9.97356 21.5235 10.1 21.2183 10.1 20.9V18.5C10.1 18.1818 10.2264 17.8765 10.4515 17.6515C10.6765 17.4264 10.9817 17.3 11.3 17.3H13.7C14.0182 17.3 14.3235 17.4264 14.5485 17.6515C14.7736 17.8765 14.9 18.1818 14.9 18.5V20.9C14.9 21.2183 15.0264 21.5235 15.2515 21.7485C15.4765 21.9736 15.7817 22.1 16.1 22.1H18.5C18.8182 22.1 19.1235 21.9736 19.3485 21.7485C19.5736 21.5235 19.7 21.2183 19.7 20.9V12.9968L20.0516 13.3484C20.2779 13.567 20.581 13.688 20.8957 13.6852C21.2103 13.6825 21.5113 13.5563 21.7338 13.3338C21.9563 13.1113 22.0825 12.8103 22.0852 12.4957C22.0879 12.1811 21.967 11.8779 21.7484 11.6516L13.3484 3.25161Z" fill="url(#paint0_linear_49_942)"/>
<defs>
<linearGradient id="paint0_linear_49_942" x1="12.5" y1="2.90027" x2="12.5" y2="22.1" gradientUnits="userSpaceOnUse">
<stop stop-color="#4A00E0"/>
<stop offset="1" stop-color="#8E2DE2"/>
</linearGradient>
</defs>
</svg>
