<svg width="14" height="17" viewBox="0 0 14 17" fill="none" xmlns="http://www.w3.org/2000/svg">
<path fill-rule="evenodd" clip-rule="evenodd" d="M2.05002 2.05C3.36284 0.737177 5.14341 -0.000358582 7.00002 -0.000358582C8.85663 -0.000358582 10.6372 0.737177 11.95 2.05C13.2628 3.36282 14.0004 5.14339 14.0004 7C14.0004 8.85661 13.2628 10.6372 11.95 11.95L7.00002 16.9L2.05002 11.95C1.39993 11.3 0.884251 10.5283 0.532423 9.67895C0.180596 8.82962 -0.000488281 7.91931 -0.000488281 7C-0.000488281 6.08069 0.180596 5.17038 0.532423 4.32105C0.884251 3.47172 1.39993 2.70002 2.05002 2.05ZM7.00002 9C7.53045 9 8.03916 8.78928 8.41423 8.41421C8.7893 8.03914 9.00002 7.53043 9.00002 7C9.00002 6.46957 8.7893 5.96086 8.41423 5.58578C8.03916 5.21071 7.53045 5 7.00002 5C6.46958 5 5.96088 5.21071 5.5858 5.58578C5.21073 5.96086 5.00002 6.46957 5.00002 7C5.00002 7.53043 5.21073 8.03914 5.5858 8.41421C5.96088 8.78928 6.46958 9 7.00002 9Z" fill="white"/>
</svg>
