<svg width="16" height="20" viewBox="0 0 16 20" fill="none" xmlns="http://www.w3.org/2000/svg">
<path d="M13 0H3C1.3 0 0 1.3 0 3V9H8.6L6.3 6.7C5.9 6.3 5.9 5.7 6.3 5.3C6.7 4.9 7.3 4.9 7.7 5.3L11.7 9.3C12.1 9.7 12.1 10.3 11.7 10.7L7.7 14.7C7.3 15.1 6.7 15.1 6.3 14.7C5.9 14.3 5.9 13.7 6.3 13.3L8.6 11H0V17C0 18.7 1.3 20 3 20H13C14.7 20 16 18.7 16 17V3C16 1.3 14.7 0 13 0Z" fill="url(#paint0_linear_207_360)"/>
<defs>
<linearGradient id="paint0_linear_207_360" x1="8" y1="0" x2="8" y2="20" gradientUnits="userSpaceOnUse">
<stop stop-color="#5407E0"/>
<stop offset="1" stop-color="#8628E2"/>
</linearGradient>
</defs>
</svg>
