<svg width="40" height="40" viewBox="0 0 40 40" fill="none" xmlns="http://www.w3.org/2000/svg">
<rect width="40" height="40" rx="8" fill="url(#paint0_linear_190_1186)"/>
<path d="M28.8822 8.18563C28.6748 8.02277 28.5274 7.96491 28.2687 8.02063L16.7275 10.5922C16.3302 10.6811 15.8608 11.0282 15.8608 11.4279V25.6194C15.8608 25.3237 15.0061 25.1426 14.3664 25.1426C12.4398 25.1426 11 26.6802 11 28.5713C11 30.4624 12.3776 32 14.3041 32C16.2307 32 17.6082 30.4624 17.6082 28.5713L17.6071 15.5379L27.2129 13.3617V20.4753C27.2129 20.1796 26.3582 19.9985 25.7186 19.9985C23.792 19.9985 22.3521 21.5361 22.3521 23.4272C22.3521 25.3183 23.7297 26.8559 25.6563 26.8559C27.5829 26.8559 28.9604 25.3183 28.9604 23.4272V8.85523C28.9593 8.59486 29.0903 8.34734 28.8818 8.18556L28.8822 8.18563Z" fill="white"/>
<defs>
<linearGradient id="paint0_linear_190_1186" x1="20" y1="0" x2="20" y2="40" gradientUnits="userSpaceOnUse">
<stop stop-color="#4B01E0"/>
<stop offset="1" stop-color="#8A2BE2"/>
</linearGradient>
</defs>
</svg>
