<svg width="25" height="18" viewBox="0 0 25 18" fill="none" xmlns="http://www.w3.org/2000/svg">
<path d="M21.9565 8.43542L13.0279 2.25403C12.9104 2.17299 12.7744 2.13178 12.6371 2.13178C12.5279 2.13178 12.4187 2.15788 12.3184 2.21008C12.0917 2.3289 11.9503 2.5631 11.9503 2.8186L11.9503 15.1814C11.9503 15.4369 12.0917 15.6711 12.3184 15.7899C12.5444 15.9094 12.8177 15.8915 13.0279 15.7466L21.9565 9.56524C22.142 9.43612 22.2526 9.22526 22.2526 8.99999C22.2526 8.77471 22.142 8.56386 21.9565 8.43542Z" fill="white"/>
<path d="M13.7147 8.70959L4.78605 2.5282C4.66861 2.44716 4.53262 2.40595 4.39525 2.40595C4.28605 2.40595 4.17684 2.43205 4.07657 2.48425C3.84992 2.60307 3.70843 2.83727 3.70843 3.09277L3.70843 15.4555C3.70843 15.711 3.84992 15.9452 4.07657 16.0641C4.30253 16.1836 4.57589 16.1657 4.78605 16.0208L13.7147 9.83941C13.9002 9.71029 14.0107 9.49943 14.0107 9.27416C14.0107 9.04888 13.9002 8.83803 13.7147 8.70959Z" fill="white"/>
</svg>
