<svg width="25" height="18" viewBox="0 0 25 18" fill="none" xmlns="http://www.w3.org/2000/svg">
<path d="M3.04333 9.56455L11.972 15.7459C12.0894 15.827 12.2254 15.8682 12.3628 15.8682C12.472 15.8682 12.5812 15.8421 12.6815 15.7899C12.9081 15.6711 13.0496 15.4369 13.0496 15.1814V2.8186C13.0496 2.5631 12.9081 2.32889 12.6815 2.21007C12.4555 2.09057 12.1822 2.10842 11.972 2.25334L3.04333 8.43473C2.85789 8.56385 2.74731 8.77471 2.74731 8.99998C2.74731 9.22526 2.85789 9.43611 3.04333 9.56455Z" fill="white"/>
<path d="M11.2852 9.29038L20.2138 15.4718C20.3313 15.5528 20.4673 15.594 20.6046 15.594C20.7138 15.594 20.823 15.5679 20.9233 15.5157C21.15 15.3969 21.2914 15.1627 21.2914 14.9072V2.54443C21.2914 2.28893 21.15 2.05472 20.9233 1.9359C20.6973 1.8164 20.424 1.83425 20.2138 1.97917L11.2852 8.16056C11.0997 8.28968 10.9891 8.50054 10.9891 8.72581C10.9891 8.95109 11.0997 9.16194 11.2852 9.29038Z" fill="white"/>
</svg>
