<svg width="12" height="16" viewBox="0 0 12 16" fill="none" xmlns="http://www.w3.org/2000/svg">
<path d="M11.6552 7.34211L1.2552 0.142394C1.1184 0.0479984 0.96 9.42201e-07 0.800001 9.28213e-07C0.672801 9.17093e-07 0.545599 0.0303993 0.4288 0.091197C0.1648 0.229591 4.01171e-07 0.50238 3.75155e-07 0.799969L-8.83683e-07 15.1994C-9.09699e-07 15.497 0.164799 15.7698 0.428799 15.9082C0.691998 16.0474 1.0104 16.0266 1.2552 15.8578L11.6552 8.65805C11.8712 8.50766 12 8.26207 12 7.99968C12 7.73729 11.8712 7.4917 11.6552 7.34211Z" fill="url(#paint0_linear_89_1380)"/>
<defs>
<linearGradient id="paint0_linear_89_1380" x1="6" y1="16" x2="6" y2="4.29138e-07" gradientUnits="userSpaceOnUse">
<stop stop-color="#4A00E0"/>
<stop offset="1" stop-color="#8E2DE2"/>
</linearGradient>
</defs>
</svg>
