<svg width="58" height="24" viewBox="0 0 58 24" fill="none" xmlns="http://www.w3.org/2000/svg">
<path d="M0.588 10.108C0.588 8.372 1.988 7.196 4.074 7.196C6.006 7.196 7.252 8.274 7.364 10.024H5.978C5.908 9.016 5.194 8.428 4.06 8.428C2.786 8.428 1.96 9.072 1.96 10.066C1.96 10.878 2.422 11.368 3.374 11.592L5.04 11.984C6.692 12.362 7.532 13.258 7.532 14.686C7.532 16.506 6.118 17.668 3.962 17.668C1.904 17.668 0.532 16.59 0.448 14.854H1.848C1.876 15.82 2.688 16.436 3.962 16.436C5.306 16.436 6.16 15.806 6.16 14.798C6.16 14 5.726 13.496 4.76 13.272L3.094 12.894C1.442 12.516 0.588 11.564 0.588 10.108ZM8.37408 20.566V19.488H9.25608C9.88608 19.488 10.3901 19.39 10.7121 18.522L10.9501 17.864L8.19208 10.654H9.57808L11.5661 16.17L13.5961 10.654H14.9541L11.7201 19.04C11.2581 20.216 10.5721 20.706 9.52208 20.706C9.08808 20.706 8.72408 20.65 8.37408 20.566ZM17.3207 17.5H16.0047V10.654H17.1947L17.3347 11.704C17.7687 10.92 18.6367 10.458 19.6027 10.458C21.4087 10.458 22.2347 11.564 22.2347 13.314V17.5H20.9187V13.608C20.9187 12.222 20.2747 11.662 19.2667 11.662C18.0347 11.662 17.3207 12.544 17.3207 13.874V17.5ZM23.6095 14.084C23.6095 11.942 24.9675 10.458 26.9695 10.458C28.6915 10.458 29.8955 11.438 30.1335 12.964H28.8175C28.5935 12.096 27.8935 11.634 27.0115 11.634C25.7655 11.634 24.9115 12.586 24.9115 14.07C24.9115 15.54 25.7095 16.492 26.9555 16.492C27.8935 16.492 28.5935 16.002 28.8315 15.19H30.1475C29.8815 16.674 28.6075 17.668 26.9555 17.668C24.9395 17.668 23.6095 16.24 23.6095 14.084Z" fill="white"/>
<path d="M46 6V9L50 5L46 1V4C43.8783 4 41.8434 4.84285 40.3431 6.34315C38.8429 7.84344 38 9.87827 38 12C38 13.57 38.46 15.03 39.24 16.26L40.7 14.8C40.25 13.97 40 13 40 12C40 10.4087 40.6321 8.88258 41.7574 7.75736C42.8826 6.63214 44.4087 6 46 6ZM52.76 7.74L51.3 9.2C51.74 10.04 52 11 52 12C52 13.5913 51.3679 15.1174 50.2426 16.2426C49.1174 17.3679 47.5913 18 46 18V15L42 19L46 23V20C48.1217 20 50.1566 19.1571 51.6569 17.6569C53.1571 16.1566 54 14.1217 54 12C54 10.43 53.54 8.97 52.76 7.74Z" fill="white"/>
</svg>
